<svg width="37" height="42" viewBox="0 0 37 42" fill="none" xmlns="http://www.w3.org/2000/svg">
<g clip-path="url(#clip0_56_217)">
<path d="M36.1983 24.8562V33.2235C36.1775 31.7487 35.2222 30.45 33.8206 29.991L17.3097 24.5825C14.9322 23.8037 12.3386 24.0419 10.1427 25.2408L1.41322 30.0065C0.56127 30.4716 0.0227941 31.3566 0.00122082 32.327L0.0012207 23.9597C0.0227967 22.9893 0.561272 22.1044 1.41323 21.6393L6.96621 18.6077C11.1891 16.3022 16.1768 15.8442 20.7489 17.3418L33.8206 21.6237C35.2222 22.0828 36.1775 23.3815 36.1983 24.8562Z" fill="#6633EE"/>
<path d="M36.1983 9.86123V18.2285C36.1775 16.7538 35.2222 15.455 33.8206 14.996L17.3097 9.58756C14.9322 8.80873 12.3386 9.04697 10.1427 10.2458L1.41322 15.0115C0.56127 15.4767 0.0227941 16.3616 0.00122082 17.332L0.0012207 8.96474C0.0227967 7.99433 0.561272 7.10941 1.41323 6.64432L6.96621 3.61271C11.1891 1.30729 16.1768 0.849203 20.7489 2.34687L33.8206 6.62872C35.2222 7.08786 36.1775 8.3865 36.1983 9.86123Z" fill="#6633EE"/>
<path d="M36.1983 24.8562V33.2234C36.1775 31.7487 35.2222 30.45 33.8206 29.9909L17.3097 24.5825C14.9322 23.8037 12.3386 24.0419 10.1427 25.2407L1.41322 30.0065C0.56127 30.4716 0.0227941 31.3565 0.00122082 32.3269L0.0012207 23.9597C0.0227967 22.9893 0.561272 22.1044 1.41323 21.6392L6.96621 18.6077C11.1891 16.3022 16.1768 15.8441 20.7489 17.3418L33.8206 21.6237C35.2222 22.0828 36.1775 23.3814 36.1983 24.8562Z" fill="black" fill-opacity="0.2"/>
<path d="M0.001221 31.55L0.0012207 23.1827C0.0220833 24.6574 0.977337 25.9561 2.37894 26.4153L15.4507 30.6971C20.0228 32.1948 25.0105 31.7367 29.2334 29.4313L34.7863 26.3997C35.6383 25.9345 36.1768 25.0496 36.1983 24.0792V32.4465C36.1768 33.4169 35.6383 34.3018 34.7863 34.7669L29.2334 37.7985C25.0105 40.1039 20.0228 40.562 15.4507 39.0643L2.37894 34.7825C0.977337 34.3234 0.0220833 33.0247 0.001221 31.55Z" fill="#6633EE"/>
<path d="M36.1983 9.86123V18.2285C36.1775 16.7538 35.2222 15.455 33.8206 14.996L17.3097 9.58756C14.9322 8.80873 12.3386 9.04697 10.1427 10.2458L1.41322 15.0115C0.56127 15.4767 0.0227941 16.3616 0.00122082 17.332L0.0012207 8.96474C0.0227967 7.99433 0.561272 7.10941 1.41323 6.64432L6.96621 3.61271C11.1891 1.30729 16.1768 0.849203 20.7489 2.34687L33.8206 6.62872C35.2222 7.08786 36.1775 8.3865 36.1983 9.86123Z" fill="black" fill-opacity="0.2"/>
<path d="M0.001221 16.5551L0.0012207 8.18781C0.0220833 9.66254 0.977337 10.9612 2.37894 11.4204L15.4507 15.7022C20.0228 17.1998 25.0105 16.7418 29.2334 14.4364L34.7863 11.4047C35.6383 10.9396 36.1768 10.0547 36.1983 9.08429V17.4516C36.1768 18.422 35.6383 19.3069 34.7863 19.772L29.2334 22.8036C25.0105 25.109 20.0228 25.5671 15.4507 24.0694L2.37894 19.7876C0.977337 19.3285 0.0220833 18.0298 0.001221 16.5551Z" fill="#6633EE"/>
</g>
<defs>
<clipPath id="clip0_56_217">
<rect width="36.1971" height="41.4279" fill="white"/>
</clipPath>
</defs>
</svg>
