<svg width="108" height="108" viewBox="0 0 108 108" fill="none" xmlns="http://www.w3.org/2000/svg">
<g clip-path="url(#clip0_67_100)">
<path d="M25.0577 10.6678C24.9593 10.5485 24.8355 10.4528 24.6953 10.3877C24.5552 10.3226 24.4022 10.2898 24.2477 10.2917C23.8871 10.3054 23.5398 10.4321 23.255 10.654C23.0399 10.7975 22.8558 10.9829 22.7138 11.1991C22.6003 11.3692 22.5359 11.5674 22.5277 11.7718C22.5232 11.958 22.5788 12.1407 22.6862 12.2928C22.7723 12.4176 22.8918 12.5157 23.0309 12.5757C23.1659 12.6281 23.3103 12.6516 23.4549 12.6447C23.6134 12.636 23.7705 12.6106 23.9237 12.5688C24.0857 12.5205 24.2408 12.4687 24.3925 12.4101L25.0818 12.1375C25.3574 12.0252 25.6423 11.9375 25.9332 11.8753C26.2126 11.8139 26.4993 11.793 26.7846 11.8132C27.0608 11.8327 27.3297 11.9103 27.5739 12.0409C27.8405 12.1893 28.0685 12.3985 28.2392 12.6516C28.4911 12.9956 28.6318 13.4086 28.6425 13.835C28.6487 14.2735 28.5291 14.7046 28.2978 15.077C28.0037 15.5367 27.6176 15.9302 27.1637 16.2328C26.7324 16.5579 26.2401 16.7926 25.7161 16.9228C25.2774 17.0276 24.8179 17.0036 24.3925 16.8538C23.9572 16.6836 23.5802 16.3913 23.3067 16.012L24.4373 15.215C24.5892 15.4091 24.7976 15.5513 25.0336 15.6221C25.2592 15.6841 25.4973 15.6841 25.723 15.6221C25.9843 15.5522 26.2307 15.4353 26.4502 15.2771C26.6778 15.1219 26.8743 14.9253 27.0293 14.6975C27.1579 14.5106 27.2341 14.2925 27.2499 14.0661C27.2626 13.8559 27.203 13.6477 27.081 13.4762C26.978 13.3225 26.8223 13.212 26.6433 13.1657C26.4493 13.1211 26.2478 13.1211 26.0538 13.1657C25.8023 13.2201 25.5555 13.2951 25.3162 13.3899L24.4648 13.7108C23.9368 13.9315 23.3633 14.0214 22.7931 13.973C22.5454 13.9406 22.3076 13.8548 22.0963 13.7213C21.885 13.5879 21.7053 13.41 21.5695 13.2001C21.3143 12.8521 21.1777 12.4312 21.18 11.9995C21.1914 11.5586 21.3199 11.1287 21.5522 10.754C21.8171 10.3261 22.1695 9.95927 22.5863 9.67758C22.988 9.38202 23.449 9.1772 23.9375 9.07726C24.3576 8.98885 24.794 9.01749 25.199 9.16006C25.5893 9.30198 25.9272 9.55951 26.1676 9.89839L25.0577 10.6678Z" fill="#DFE1F4"/>
<path d="M27.0845 8.20438L26.5536 7.14865L32.0928 4.3575L32.6236 5.41323L30.4762 6.49312L33.4405 12.3859L32.1927 13.0139L29.2284 7.12105L27.0845 8.20438Z" fill="#DFE1F4"/>
<path d="M36.5324 10.9782L35.1122 11.4544L35.1812 3.20511L36.8253 2.64275L41.9371 9.11173L40.5135 9.60164L36.5496 4.42646L36.491 4.44716L36.5324 10.9782ZM35.5879 8.07669L39.4657 6.74839L39.8345 7.81793L35.9567 9.14968L35.5879 8.07669Z" fill="#DFE1F4"/>
<path d="M42.6748 9.00826L41.327 1.34899L44.1983 0.841818C44.7059 0.73482 45.2316 0.750195 45.7321 0.886671C46.1464 1.00452 46.5153 1.24507 46.7903 1.5767C47.0722 1.93257 47.2564 2.35595 47.3246 2.80494C47.4163 3.24966 47.3866 3.71092 47.2384 4.14014C47.0901 4.54241 46.8217 4.88929 46.4698 5.13377C46.0392 5.42619 45.5476 5.61619 45.0324 5.68924L42.9884 6.0515L42.7851 4.89916L44.6429 4.55415C44.9333 4.5124 45.2122 4.41267 45.4633 4.26089C45.6524 4.14108 45.7975 3.96312 45.8769 3.75372C45.952 3.52313 45.9651 3.2768 45.9148 3.03955C45.8787 2.79549 45.7801 2.56493 45.6287 2.37022C45.4832 2.19631 45.2846 2.07509 45.0634 2.02521C44.775 1.96267 44.4764 1.96267 44.1879 2.02521L42.916 2.24947L44.0604 8.7495L42.6748 9.00826ZM46.0182 4.84051L48.5241 7.97667L46.9765 8.24923L44.5051 5.10617L46.0182 4.84051Z" fill="#DFE1F4"/>
<path d="M48.7481 1.35245L48.7137 0.172506L54.9181 0L54.9525 1.17994L52.5397 1.24894L52.7224 7.84212L51.3264 7.88008L51.1437 1.28689L48.7481 1.35245Z" fill="#DFE1F4"/>
<path d="M56.0659 7.85933L56.9448 0.131058L61.9669 0.700328L61.8325 1.87337L58.2098 1.449L57.972 3.54668L61.3327 3.92964L61.2017 5.10268L57.8375 4.71972L57.5963 6.83119L61.25 7.24521L61.119 8.41825L56.0659 7.85933Z" fill="#DFE1F4"/>
<path d="M62.253 8.63566L64.2177 1.11095L67.0373 1.84582C67.5448 1.96374 68.0173 2.20019 68.416 2.53585C68.7441 2.81804 68.9785 3.19349 69.0882 3.61228C69.1958 4.05443 69.1863 4.51704 69.0606 4.95438C68.9593 5.39498 68.7414 5.80016 68.4298 6.12742C68.1268 6.43344 67.7368 6.63828 67.313 6.71395C66.8 6.79677 66.275 6.76496 65.7757 6.62079L63.7696 6.09292L64.0626 4.96128L65.8895 5.44085C66.1701 5.52277 66.4643 5.54741 66.7546 5.5133C66.9773 5.48337 67.1842 5.38163 67.344 5.22349C67.5127 5.04724 67.6316 4.82938 67.6887 4.59212C67.757 4.35511 67.7641 4.10465 67.7094 3.86414C67.6518 3.64207 67.522 3.44546 67.3406 3.30522C67.1049 3.12897 66.8348 3.00437 66.5478 2.93951L65.3 2.5945L63.6317 8.98068L62.253 8.63566ZM67.0269 6.24128L67.9886 10.1365L66.4789 9.72935L65.5413 5.84107L67.0269 6.24128Z" fill="#DFE1F4"/>
<path d="M71.0701 11.3336L74.517 4.36783L75.7786 4.99575L74.193 8.19746L74.2792 8.23886L78.5843 6.3896L80.1251 7.15553L75.8785 8.94269L76.6851 14.1179L75.1685 13.3657L74.5791 9.34635L73.3554 9.87077L72.3213 11.9408L71.0701 11.3336Z" fill="#DFE1F4"/>
<path d="M82.6516 8.83916L78.4637 15.3944L77.278 14.6354L81.4659 8.08014L82.6516 8.83916Z" fill="#DFE1F4"/>
<path d="M83.4617 10.7195L84.1993 9.79489L89.0457 13.6694L88.3253 14.5906L86.4467 13.0898L82.3346 18.2442L81.2454 17.3748L85.3575 12.2169L83.4617 10.7195Z" fill="#DFE1F4"/>
<path d="M81.5728 96.3722C81.6711 96.4915 81.795 96.5872 81.9351 96.6523C82.0753 96.7174 82.2283 96.7502 82.3828 96.7483C82.7415 96.7395 83.0886 96.6189 83.3755 96.4033C83.5906 96.2598 83.7746 96.0744 83.9167 95.8582C84.0302 95.6881 84.0946 95.4899 84.1028 95.2855C84.1068 95.0982 84.0513 94.9146 83.9442 94.761C83.8587 94.6365 83.739 94.5395 83.5995 94.4816C83.4652 94.427 83.3203 94.4034 83.1756 94.4126C83.0169 94.4198 82.8596 94.4452 82.7068 94.4885C82.5448 94.5333 82.3897 94.5885 82.238 94.6472L81.5486 94.9197C81.2719 95.0321 80.9859 95.1198 80.6938 95.1819C80.4145 95.2434 80.1277 95.2643 79.8424 95.244C79.5521 95.2268 79.2698 95.142 79.0179 94.9965C78.766 94.8509 78.5515 94.6487 78.3913 94.4057C78.1386 94.0618 77.9967 93.649 77.9846 93.2223C77.9779 92.7837 78.0976 92.3525 78.3293 91.9802C78.6234 91.5216 79.0096 91.1292 79.4633 90.8279C79.8948 90.5032 80.3871 90.2686 80.911 90.1379C81.3488 90.0343 81.8072 90.0595 82.2311 90.2103C82.6676 90.3802 83.0458 90.6725 83.3204 91.0522L82.2001 91.8422C82.0503 91.6474 81.8428 91.5049 81.6073 91.4351C81.3815 91.3738 81.1436 91.3738 80.9179 91.4351C80.3906 91.5888 79.9304 91.9157 79.6115 92.3632C79.4849 92.5499 79.4089 92.7662 79.3909 92.9911C79.3772 93.203 79.4382 93.413 79.5632 93.5845C79.6644 93.7379 79.8194 93.8475 79.9976 93.8916C80.1913 93.9381 80.3932 93.9381 80.587 93.8916C80.8387 93.8377 81.0854 93.7627 81.3246 93.6674L82.1794 93.343C82.7065 93.1232 83.2789 93.0345 83.8477 93.0843C84.0961 93.1161 84.3345 93.2018 84.5464 93.3353C84.7583 93.4687 84.9386 93.6468 85.0748 93.8571C85.329 94.2054 85.4644 94.6264 85.4609 95.0577C85.4503 95.4983 85.323 95.9281 85.092 96.3032C84.8268 96.7309 84.4745 97.0977 84.058 97.3797C83.6563 97.6752 83.1953 97.8801 82.7068 97.98C82.2875 98.0645 81.8533 98.0359 81.4487 97.8972C81.0569 97.7563 80.7177 97.4986 80.4767 97.1589L81.5728 96.3722Z" fill="#DFE1F4"/>
<path d="M79.546 98.839L80.0768 99.8948L74.5377 102.686L74.0069 101.63L76.1508 100.55L73.1865 94.6575L74.4343 94.0296L77.3986 99.9224L79.546 98.839Z" fill="#DFE1F4"/>
<path d="M70.0981 96.0617L71.5182 95.5752L71.4493 103.821L69.8051 104.387L64.6968 97.9144L66.117 97.428L70.0809 102.603L70.1395 102.586L70.0981 96.0617ZM71.0391 98.9633L67.1614 100.295L66.796 99.222L70.6737 97.8937L71.0391 98.9633Z" fill="#DFE1F4"/>
<path d="M60.6123 102.193L58.1099 99.0564L59.6541 98.7804L62.1289 101.923L60.6123 102.193ZM63.9558 98.0524L65.3035 105.712L62.4357 106.219C61.9267 106.325 61.3998 106.308 60.8984 106.171C60.4838 106.054 60.1147 105.813 59.8402 105.481C59.5591 105.123 59.3751 104.699 59.3059 104.249C59.2159 103.805 59.2456 103.345 59.3921 102.917C59.5418 102.515 59.8113 102.168 60.1642 101.923C60.5935 101.63 61.0839 101.439 61.5981 101.365L63.6421 101.02L63.8455 102.172L61.9876 102.5C61.698 102.54 61.4198 102.64 61.1707 102.793C60.9804 102.911 60.8349 103.09 60.7571 103.3C60.6819 103.531 60.6689 103.777 60.7192 104.014C60.7541 104.258 60.8515 104.489 61.0018 104.684C61.1483 104.858 61.3482 104.979 61.5705 105.029C61.858 105.09 62.1551 105.09 62.4426 105.029L63.7145 104.804L62.5701 98.3008L63.9558 98.0524Z" fill="#DFE1F4"/>
<path d="M57.8858 105.691L57.9168 106.871L51.7124 107.043L51.6814 105.86L54.0942 105.794L53.9115 99.2013L55.3075 99.1599L55.4902 105.757L57.8858 105.691Z" fill="#DFE1F4"/>
<path d="M50.5647 99.1841L49.6892 106.912L44.6671 106.333L44.798 105.156L48.4242 105.57L48.662 103.473L45.2978 103.09L45.4323 101.917L48.793 102.3L49.0343 100.188L45.3806 99.774L45.515 98.5976L50.5647 99.1841Z" fill="#DFE1F4"/>
<path d="M44.3775 98.3974L42.4162 105.926L39.5967 105.187C39.0885 105.071 38.6156 104.834 38.2179 104.497C37.891 104.214 37.6568 103.839 37.5458 103.421C37.4399 102.978 37.4494 102.516 37.5733 102.079C37.6766 101.637 37.8955 101.231 38.2076 100.902C38.5109 100.599 38.8992 100.396 39.3209 100.319C39.8338 100.233 40.3595 100.265 40.8582 100.412L42.8677 100.937L42.5713 102.068L40.7582 101.609C40.4767 101.526 40.1813 101.501 39.8896 101.534C39.6681 101.564 39.4625 101.666 39.3037 101.823C39.1345 102.001 39.0155 102.22 38.959 102.458C38.8881 102.695 38.8797 102.946 38.9349 103.186C38.9946 103.407 39.1239 103.603 39.3037 103.745C39.5403 103.922 39.8116 104.047 40.0999 104.111L41.3477 104.439L43.016 98.0524L44.3775 98.3974ZM39.6035 100.812L38.6315 96.9139L40.1516 97.3106L41.1029 101.189L39.6035 100.812Z" fill="#DFE1F4"/>
<path d="M35.5604 95.7098L32.1135 102.676L30.852 102.048L32.4444 98.846L32.3583 98.8046L28.0531 100.654L26.5158 99.8845L30.7624 98.1007L29.9558 92.9083L31.4724 93.6639L32.0618 97.6833L33.2889 97.1554L34.323 95.0853L35.5604 95.7098Z" fill="#DFE1F4"/>
<path d="M23.9823 98.2043L28.1668 91.6491L29.3525 92.4081L25.168 98.9633L23.9823 98.2043Z" fill="#DFE1F4"/>
<path d="M23.1792 96.3274L22.4416 97.252L17.5987 93.3775L18.3329 92.4563L20.2114 93.9537L24.3236 88.7992L25.4162 89.6721L21.3006 94.8266L23.1792 96.3274Z" fill="#DFE1F4"/>
</g>
<g clip-path="url(#clip1_67_100)">
<path d="M10.6678 81.9857C10.5485 82.0841 10.4528 82.2079 10.3877 82.3481C10.3227 82.4883 10.2899 82.6413 10.2917 82.7958C10.3055 83.1564 10.4322 83.5036 10.654 83.7885C10.7975 84.0036 10.9829 84.1876 11.1991 84.3296C11.3692 84.4432 11.5674 84.5076 11.7718 84.5158C11.958 84.5203 12.1407 84.4647 12.2928 84.3572C12.4176 84.2711 12.5157 84.1517 12.5757 84.0125C12.6282 83.8776 12.6517 83.7331 12.6447 83.5885C12.636 83.4301 12.6106 83.2729 12.5688 83.1198C12.5205 82.9578 12.4688 82.8027 12.4101 82.651L12.1375 81.9616C12.0252 81.6861 11.9375 81.4012 11.8753 81.1102C11.8139 80.8309 11.793 80.5442 11.8132 80.2589C11.8327 79.9827 11.9103 79.7137 12.0409 79.4695C12.1893 79.2029 12.3985 78.975 12.6516 78.8043C12.9957 78.5524 13.4086 78.4117 13.835 78.401C14.2735 78.3947 14.7046 78.5144 15.077 78.7457C15.5367 79.0397 15.9303 79.4259 16.2328 79.8797C16.5579 80.311 16.7926 80.8034 16.9229 81.3274C17.0276 81.7661 17.0036 82.2256 16.8539 82.651C16.6836 83.0863 16.3913 83.4632 16.012 83.7368L15.215 82.6062C15.4091 82.4542 15.5514 82.2459 15.6222 82.0099C15.6841 81.7842 15.6841 81.5461 15.6222 81.3205C15.5523 81.0592 15.4354 80.8127 15.2772 80.5932C15.1219 80.3656 14.9253 80.1692 14.6975 80.0141C14.5106 79.8855 14.2926 79.8094 14.0662 79.7935C13.856 79.7808 13.6477 79.8404 13.4762 79.9624C13.3225 80.0654 13.212 80.2212 13.1657 80.4002C13.1211 80.5941 13.1211 80.7957 13.1657 80.9896C13.2201 81.2412 13.2951 81.4879 13.3899 81.7272L13.7108 82.5786C13.9315 83.1067 14.0215 83.6801 13.973 84.2503C13.9407 84.4981 13.8548 84.7358 13.7213 84.9471C13.5879 85.1584 13.4101 85.3382 13.2002 85.474C12.8522 85.7292 12.4312 85.8657 11.9995 85.8635C11.5587 85.8521 11.1288 85.7236 10.754 85.4912C10.3262 85.2264 9.9593 84.8739 9.67761 84.4572C9.38205 84.0554 9.17723 83.5945 9.07729 83.106C8.98888 82.6858 9.01752 82.2495 9.16009 81.8444C9.30201 81.4541 9.55954 81.1163 9.89842 80.8759L10.6678 81.9857Z" fill="#DFE1F4"/>
<path d="M8.20437 79.959L7.14863 80.4898L4.35748 74.9507L5.41322 74.4198L6.49311 76.5672L12.3859 73.6029L13.0138 74.8507L7.12103 77.815L8.20437 79.959Z" fill="#DFE1F4"/>
<path d="M10.9783 70.5111L11.4544 71.9312L3.20513 71.8623L2.64276 70.2181L9.11174 65.1064L9.60166 66.5299L4.42647 70.4938L4.44718 70.5524L10.9783 70.5111ZM8.0767 71.4555L6.74841 67.5778L7.81795 67.209L9.14969 71.0867L8.0767 71.4555Z" fill="#DFE1F4"/>
<path d="M9.00832 64.3687L1.34905 65.7165L0.841879 62.8452C0.734881 62.3376 0.750256 61.8119 0.886732 61.3114C1.00458 60.8971 1.24513 60.5282 1.57676 60.2532C1.93263 59.9713 2.35601 59.7871 2.805 59.7189C3.24972 59.6272 3.71098 59.6569 4.1402 59.8051C4.54247 59.9534 4.88935 60.2218 5.13383 60.5737C5.42625 61.0043 5.61625 61.4959 5.6893 62.0111L6.05156 64.0551L4.89922 64.2584L4.55421 62.4006C4.51246 62.1103 4.41273 61.8313 4.26095 61.5802C4.14114 61.3912 3.96318 61.246 3.75378 61.1666C3.52319 61.0915 3.27686 61.0784 3.03961 61.1287C2.79555 61.1648 2.56499 61.2634 2.37028 61.4148C2.19637 61.5603 2.07515 61.7589 2.02527 61.9801C1.96273 62.2685 1.96273 62.5671 2.02527 62.8556L2.24953 64.1275L8.74956 62.9831L9.00832 64.3687ZM4.84057 61.0253L7.97673 58.5194L8.24929 60.067L5.10623 62.5385L4.84057 61.0253Z" fill="#DFE1F4"/>
<path d="M1.35245 58.2954L0.172506 58.3298L-2.71202e-07 52.1254L1.17994 52.091L1.24894 54.5038L7.84212 54.3211L7.88008 55.7171L1.28689 55.8998L1.35245 58.2954Z" fill="#DFE1F4"/>
<path d="M7.85938 50.9776L0.131103 50.0987L0.700374 45.0766L1.87342 45.211L1.44905 48.8337L3.54672 49.0715L3.92969 45.7108L5.10273 45.8418L4.71977 49.2059L6.83124 49.4472L7.24525 45.7935L8.41829 45.9245L7.85938 50.9776Z" fill="#DFE1F4"/>
<path d="M8.63568 44.7905L1.11096 42.8257L1.84584 40.0062C1.96375 39.4986 2.2002 39.0262 2.53586 38.6274C2.81805 38.2994 3.1935 38.0649 3.6123 37.9553C4.05445 37.8477 4.51706 37.8572 4.9544 37.9829C5.39499 38.0841 5.80018 38.302 6.12744 38.6136C6.43345 38.9166 6.6383 39.3067 6.71396 39.7304C6.79679 40.2434 6.76497 40.7684 6.62081 41.2677L6.09294 43.2738L4.9613 42.9808L5.44087 41.154C5.52278 40.8734 5.54742 40.5791 5.51332 40.2888C5.48338 40.0661 5.38165 39.8592 5.22351 39.6994C5.04726 39.5308 4.8294 39.4118 4.59214 39.3547C4.35513 39.2865 4.10467 39.2794 3.86416 39.334C3.64208 39.3917 3.44548 39.5214 3.30524 39.7029C3.12899 39.9385 3.00438 40.2087 2.93953 40.4956L2.59452 41.7434L8.98069 43.4117L8.63568 44.7905ZM6.24129 40.0165L10.1365 39.0548L9.72937 40.5646L5.84108 41.5021L6.24129 40.0165Z" fill="#DFE1F4"/>
<path d="M11.3337 35.9733L4.36786 32.5264L4.99578 31.2649L8.19749 32.8505L8.23889 32.7643L6.38963 28.4591L7.15556 26.9184L8.94272 31.1649L14.1179 30.3584L13.3658 31.875L9.34638 32.4644L9.8708 33.688L11.9409 34.7221L11.3337 35.9733Z" fill="#DFE1F4"/>
<path d="M8.83916 24.3918L15.3944 28.5798L14.6354 29.7655L8.08014 25.5775L8.83916 24.3918Z" fill="#DFE1F4"/>
<path d="M10.7196 23.5818L9.79492 22.8441L13.6694 17.9978L14.5906 18.7182L13.0898 20.5968L18.2443 24.7089L17.3748 25.7981L12.2169 21.686L10.7196 23.5818Z" fill="#DFE1F4"/>
<path d="M96.3722 25.4707C96.4915 25.3723 96.5872 25.2485 96.6523 25.1083C96.7174 24.9682 96.7502 24.8152 96.7483 24.6607C96.7395 24.302 96.6189 23.9549 96.4033 23.668C96.2598 23.4529 96.0744 23.2689 95.8582 23.1268C95.6881 23.0133 95.4899 22.9489 95.2855 22.9407C95.0982 22.9367 94.9146 22.9922 94.761 23.0993C94.6365 23.1848 94.5395 23.3045 94.4816 23.4439C94.427 23.5783 94.4034 23.7232 94.4126 23.8679C94.4198 24.0266 94.4452 24.1839 94.4885 24.3367C94.5333 24.4987 94.5885 24.6538 94.6472 24.8055L94.9197 25.4948C95.0321 25.7715 95.1198 26.0576 95.1819 26.3497C95.2434 26.629 95.2643 26.9157 95.244 27.201C95.2268 27.4914 95.142 27.7737 94.9965 28.0256C94.8509 28.2775 94.6487 28.492 94.4057 28.6522C94.0618 28.9049 93.649 29.0468 93.2223 29.0589C92.7837 29.0655 92.3525 28.9459 91.9802 28.7142C91.5216 28.4201 91.1292 28.0339 90.8279 27.5802C90.5032 27.1486 90.2686 26.6564 90.1379 26.1325C90.0343 25.6947 90.0595 25.2363 90.2103 24.8124C90.3802 24.3759 90.6725 23.9977 91.0522 23.7231L91.8422 24.8434C91.6474 24.9932 91.5049 25.2007 91.4351 25.4362C91.3738 25.662 91.3738 25.8999 91.4351 26.1256C91.5888 26.6529 91.9157 27.1131 92.3632 27.432C92.5499 27.5585 92.7662 27.6346 92.9911 27.6526C93.203 27.6663 93.413 27.6053 93.5845 27.4802C93.7379 27.3791 93.8475 27.2241 93.8916 27.0459C93.9381 26.8522 93.9381 26.6503 93.8916 26.4565C93.8377 26.2048 93.7627 25.9581 93.6674 25.7189L93.343 24.8641C93.1232 24.337 93.0345 23.7646 93.0843 23.1958C93.1161 22.9474 93.2018 22.709 93.3353 22.4971C93.4687 22.2852 93.6468 22.1048 93.8571 21.9687C94.2054 21.7145 94.6264 21.5791 95.0577 21.5826C95.4983 21.5932 95.9281 21.7205 96.3032 21.9514C96.7309 22.2167 97.0977 22.569 97.3797 22.9855C97.6752 23.3872 97.8801 23.8482 97.98 24.3367C98.0645 24.756 98.0359 25.1902 97.8972 25.5948C97.7563 25.9866 97.4986 26.3258 97.1589 26.5668L96.3722 25.4707Z" fill="#DFE1F4"/>
<path d="M98.8391 27.4974L99.8948 26.9666L102.686 32.5058L101.63 33.0366L100.55 30.8926L94.6575 33.8569L94.0296 32.6092L99.9224 29.6448L98.8391 27.4974Z" fill="#DFE1F4"/>
<path d="M96.0617 36.9453L95.5753 35.5252L103.821 35.5942L104.387 37.2383L97.9144 42.3466L97.428 40.9265L102.603 36.9626L102.586 36.904L96.0617 36.9453ZM98.9633 36.0043L100.295 39.8821L99.222 40.2475L97.8937 36.3697L98.9633 36.0043Z" fill="#DFE1F4"/>
<path d="M102.193 46.4312L99.0564 48.9336L98.7804 47.3894L101.923 44.9145L102.193 46.4312ZM98.0524 43.0877L105.712 41.74L106.219 44.6078C106.325 45.1168 106.308 45.6437 106.171 46.1451C106.054 46.5596 105.813 46.9288 105.481 47.2033C105.123 47.4843 104.699 47.6683 104.249 47.7375C103.805 47.8276 103.345 47.7979 102.917 47.6514C102.515 47.5017 102.168 47.2322 101.923 46.8793C101.63 46.45 101.439 45.9596 101.365 45.4454L101.02 43.4013L102.172 43.198L102.5 45.0559C102.54 45.3455 102.64 45.6237 102.793 45.8728C102.911 46.063 103.09 46.2085 103.3 46.2864C103.531 46.3615 103.777 46.3746 104.014 46.3243C104.258 46.2893 104.489 46.1919 104.684 46.0417C104.858 45.8952 104.979 45.6953 105.029 45.4729C105.09 45.1854 105.09 44.8883 105.029 44.6009L104.804 43.329L98.3008 44.4733L98.0524 43.0877Z" fill="#DFE1F4"/>
<path d="M105.691 49.1577L106.871 49.1266L107.043 55.331L105.86 55.362L105.794 52.9492L99.2013 53.1319L99.1599 51.7359L105.757 51.5532L105.691 49.1577Z" fill="#DFE1F4"/>
<path d="M99.1841 56.4788L106.912 57.3543L106.333 62.3764L105.156 62.2455L105.57 58.6193L103.473 58.3815L103.09 61.7457L101.917 61.6112L102.3 58.2505L100.188 58.0092L99.7741 61.6629L98.5976 61.5285L99.1841 56.4788Z" fill="#DFE1F4"/>
<path d="M98.3974 62.666L105.926 64.6273L105.187 67.4468C105.071 67.955 104.834 68.4278 104.497 68.8256C104.214 69.1524 103.839 69.3866 103.421 69.4977C102.978 69.6036 102.516 69.5941 102.079 69.4701C101.637 69.3669 101.231 69.148 100.902 68.8359C100.599 68.5326 100.396 68.1442 100.319 67.7226C100.233 67.2097 100.265 66.684 100.412 66.1853L100.937 64.1757L102.068 64.4722L101.609 66.2852C101.527 66.5668 101.501 66.8621 101.534 67.1538C101.564 67.3753 101.666 67.5809 101.823 67.7398C102.001 67.909 102.22 68.028 102.458 68.0845C102.695 68.1554 102.946 68.1637 103.186 68.1086C103.407 68.0489 103.603 67.9195 103.745 67.7398C103.922 67.5032 104.047 67.2318 104.111 66.9436L104.439 65.6958L98.0524 64.0275L98.3974 62.666ZM100.813 67.4399L96.9139 68.4119L97.3106 66.8919L101.189 65.9405L100.813 67.4399Z" fill="#DFE1F4"/>
<path d="M95.7098 71.4831L102.676 74.93L102.048 76.1915L98.846 74.5991L98.8046 74.6853L100.654 78.9904L99.8845 80.5277L98.1008 76.2812L92.9083 77.0877L93.6639 75.5711L97.6833 74.9817L97.1554 73.7546L95.0854 72.7205L95.7098 71.4831Z" fill="#DFE1F4"/>
<path d="M98.2043 83.0612L91.649 78.8767L92.4081 77.6909L98.9633 81.8754L98.2043 83.0612Z" fill="#DFE1F4"/>
<path d="M96.3274 83.8643L97.2521 84.6019L93.3776 89.4448L92.4564 88.7106L93.9537 86.832L88.7993 82.7199L89.6721 81.6272L94.8266 85.7428L96.3274 83.8643Z" fill="#DFE1F4"/>
</g>
<defs>
<clipPath id="clip0_67_100">
<rect width="97.6984" height="107.043" fill="white" transform="translate(4.46606 -1.52588e-05)"/>
</clipPath>
<clipPath id="clip1_67_100">
<rect width="97.6984" height="107.043" fill="white" transform="translate(0 102.577) rotate(-90)"/>
</clipPath>
</defs>
</svg>
